{
  "accessors": [
    {
      "bufferView": 2,
      "componentType": 5126,
      "count": 2094,
      "max": [0.05117381364107132, 0.03182503581047058, 0.06459395587444305],
      "min": [-0.0511297881603241, 0.013816827908158302, -0.05141202360391617],
      "type": "VEC3"
    },
    {
      "bufferView": 2,
      "byteOffset": 25128,
      "componentType": 5126,
      "count": 2094,
      "max": [0.9960488080978394, 0.9996238350868225, 0.9999861717224121],
      "min": [-0.9960530996322632, -1.0, -1.0],
      "type": "VEC3"
    },
    {
      "bufferView": 1,
      "componentType": 5126,
      "count": 2094,
      "max": [1.0, 1.0],
      "min": [0.0, 1.0],
      "type": "VEC2"
    },
    {
      "bufferView": 0,
      "componentType": 5125,
      "count": 3150,
      "type": "SCALAR"
    },
    {
      "bufferView": 2,
      "byteOffset": 50256,
      "componentType": 5126,
      "count": 100,
      "max": [0.04496479034423828, 0.029526719823479652, 0.05861804634332657],
      "min": [-6.280833622440696e-5, 0.02311536855995655, -0.045668020844459534],
      "type": "VEC3"
    },
    {
      "bufferView": 2,
      "byteOffset": 51456,
      "componentType": 5126,
      "count": 100,
      "max": [0.15070946514606476, 0.9995344877243042, 0.5603554844856262],
      "min": [-0.47807082533836365, 0.7208635807037354, -0.544601321220398],
      "type": "VEC3"
    },
    {
      "bufferView": 1,
      "byteOffset": 16752,
      "componentType": 5126,
      "count": 100,
      "max": [0.9682552814483643, 1.0],
      "min": [0.40539664030075073, 1.0],
      "type": "VEC2"
    },
    {
      "bufferView": 0,
      "byteOffset": 12600,
      "componentType": 5125,
      "count": 150,
      "type": "SCALAR"
    },
    {
      "bufferView": 2,
      "byteOffset": 52656,
      "componentType": 5126,
      "count": 4,
      "max": [0.11410477757453918, 0.0, -0.008888304233551025],
      "min": [0.0722503662109375, 0.0, -0.1075061559677124],
      "type": "VEC3"
    },
    {
      "bufferView": 2,
      "byteOffset": 52704,
      "componentType": 5126,
      "count": 4,
      "max": [0.0, 1.0, -0.0],
      "min": [0.0, 1.0, -0.0],
      "type": "VEC3"
    },
    {
      "bufferView": 1,
      "byteOffset": 17552,
      "componentType": 5126,
      "count": 4,
      "max": [1.0, 1.0],
      "min": [0.0, 1.0],
      "type": "VEC2"
    },
    {
      "bufferView": 0,
      "byteOffset": 13200,
      "componentType": 5125,
      "count": 6,
      "type": "SCALAR"
    },
    {
      "bufferView": 2,
      "byteOffset": 52752,
      "componentType": 5126,
      "count": 260,
      "max": [0.029275178909301758, -0.0010260865092277527, 0.04259932413697243],
      "min": [-0.029384795576334, -0.007200615480542183, -0.030610300600528717],
      "type": "VEC3"
    },
    {
      "bufferView": 2,
      "byteOffset": 55872,
      "componentType": 5126,
      "count": 260,
      "max": [0.9997938275337219, 0.9912623167037964, 0.9947631359100342],
      "min": [-0.9997938275337219, -0.9912623167037964, -0.994520902633667],
      "type": "VEC3"
    },
    {
      "bufferView": 1,
      "byteOffset": 17584,
      "componentType": 5126,
      "count": 260,
      "max": [1.0, 1.0],
      "min": [0.0, 1.0],
      "type": "VEC2"
    },
    {
      "bufferView": 0,
      "byteOffset": 13224,
      "componentType": 5125,
      "count": 312,
      "type": "SCALAR"
    }
  ],
  "asset": {
    "extras": {
      "author": "JaviAgenjo (https://sketchfab.com/JaviAgenjo)",
      "license": "CC-BY-4.0 (http://creativecommons.org/licenses/by/4.0/)",
      "source": "https://sketchfab.com/3d-models/html5-logo-75c82681c158404196c70e5d44d72c34",
      "title": "HTML5 Logo"
    },
    "generator": "Sketchfab-12.68.0",
    "version": "2.0"
  },
  "bufferViews": [
    {
      "buffer": 0,
      "byteLength": 14472,
      "name": "floatBufferViews",
      "target": 34963
    },
    {
      "buffer": 0,
      "byteLength": 19664,
      "byteOffset": 14472,
      "byteStride": 8,
      "name": "floatBufferViews",
      "target": 34962
    },
    {
      "buffer": 0,
      "byteLength": 58992,
      "byteOffset": 34136,
      "byteStride": 12,
      "name": "floatBufferViews",
      "target": 34962
    }
  ],
  "buffers": [
    {
      "byteLength": 93128,
      "uri": "scene.bin"
    }
  ],
  "materials": [
    {
      "doubleSided": true,
      "name": "SVGMat.001",
      "pbrMetallicRoughness": {
        "baseColorFactor": [0.775822, 0.0742136, 0.0193824, 1.0],
        "metallicFactor": 0.0,
        "roughnessFactor": 0.4
      }
    },
    {
      "doubleSided": true,
      "name": "Material.001",
      "pbrMetallicRoughness": {
        "baseColorFactor": [0.552011, 0.249627, 0.00270558, 1.0],
        "metallicFactor": 0.0,
        "roughnessFactor": 0.5
      }
    },
    {
      "doubleSided": true,
      "name": "SVGMat.002",
      "pbrMetallicRoughness": {
        "baseColorFactor": [0.879622, 0.130136, 0.0221739, 1.0],
        "metallicFactor": 0.0,
        "roughnessFactor": 0.4
      }
    },
    {
      "doubleSided": true,
      "name": "SVGMat.004",
      "pbrMetallicRoughness": {
        "metallicFactor": 0.0,
        "roughnessFactor": 0.4
      }
    }
  ],
  "meshes": [
    {
      "name": "Object_0",
      "primitives": [
        {
          "attributes": {
            "NORMAL": 1,
            "POSITION": 0,
            "TEXCOORD_0": 2
          },
          "indices": 3,
          "material": 0,
          "mode": 4
        }
      ]
    },
    {
      "name": "Object_1",
      "primitives": [
        {
          "attributes": {
            "NORMAL": 5,
            "POSITION": 4,
            "TEXCOORD_0": 6
          },
          "indices": 7,
          "material": 1,
          "mode": 4
        }
      ]
    },
    {
      "name": "Object_2",
      "primitives": [
        {
          "attributes": {
            "NORMAL": 9,
            "POSITION": 8,
            "TEXCOORD_0": 10
          },
          "indices": 11,
          "material": 2,
          "mode": 4
        }
      ]
    },
    {
      "name": "Object_3",
      "primitives": [
        {
          "attributes": {
            "NORMAL": 13,
            "POSITION": 12,
            "TEXCOORD_0": 14
          },
          "indices": 15,
          "material": 3,
          "mode": 4
        }
      ]
    }
  ],
  "nodes": [
    {
      "children": [1],
      "matrix": [
        4.512033939361572, 0.0, 0.0, 0.0, 0.0, 4.507571717076189, 0.20061576338019116, 0.0, 0.0,
        -0.20061576338019116, 4.507571717076189, 0.0, 0.0, 0.0018785829888656835,
        -0.04454699903726578, 1.0
      ],
      "name": "Sketchfab_model"
    },
    {
      "children": [2],
      "name": "root"
    },
    {
      "children": [3, 6, 8],
      "matrix": [
        1.0, 0.0, 0.0, 0.0, 0.0, 2.220446049250313e-16, 1.0, 0.0, 0.0, -1.0, 2.220446049250313e-16,
        0.0, 0.0, 0.0, 0.0, 1.0
      ],
      "name": "GLTF_SceneRootNode"
    },
    {
      "children": [4, 5],
      "matrix": [
        10.883913040161133, 0.0, 0.0, 0.0, 0.0, 10.883913040161133, 0.0, 0.0, 0.0, 0.0,
        10.883913040161133, 0.0, 0.0016488432884216309, -0.226137176156044, -0.09310305118560791,
        1.0
      ],
      "name": "Curve.001_0"
    },
    {
      "mesh": 0,
      "name": "Object_4"
    },
    {
      "mesh": 1,
      "name": "Object_5"
    },
    {
      "children": [7],
      "matrix": [
        1.0, 0.0, 0.0, 0.0, 0.0, 1.0, 0.0, 0.0, 0.0, 0.0, 1.0, 0.0, 0.0, 0.06960133463144302, 0.0,
        1.0
      ],
      "name": "Curve.002_1"
    },
    {
      "mesh": 2,
      "name": "Object_7"
    },
    {
      "children": [9],
      "matrix": [
        10.883913040161133, 0.0, 0.0, 0.0, 0.0, 10.883913040161133, 0.0, 0.0, 0.0, 0.0,
        10.883913040161133, 0.0, 0.0016488432884216309, 0.12011848390102386, -0.09310305118560791,
        1.0
      ],
      "name": "Curve.004_2"
    },
    {
      "mesh": 3,
      "name": "Object_9"
    }
  ],
  "scene": 0,
  "scenes": [
    {
      "name": "Sketchfab_Scene",
      "nodes": [0]
    }
  ]
}
